<?xml version="1.0" encoding="UTF-8"?>
<svg xmlns="http://www.w3.org/2000/svg" xmlns:xlink="http://www.w3.org/1999/xlink" width="72px" height="48px" viewBox="0 0 72 48" version="1.1">
<g id="surface1">
<path style=" stroke:none;fill-rule:nonzero;fill:rgb(14.509805%,18.431373%,24.313726%);fill-opacity:1;" d="M 24.324219 19.621094 C 24.324219 20.28125 24.394531 20.8125 24.519531 21.207031 C 24.664062 21.597656 24.839844 22.023438 25.089844 22.488281 C 25.179688 22.628906 25.214844 22.773438 25.214844 22.898438 C 25.214844 23.074219 25.105469 23.253906 24.875 23.429688 L 23.753906 24.179688 C 23.59375 24.285156 23.433594 24.339844 23.292969 24.339844 C 23.113281 24.339844 22.9375 24.25 22.757812 24.089844 C 22.507812 23.820312 22.296875 23.539062 22.117188 23.253906 C 21.9375 22.949219 21.761719 22.613281 21.566406 22.203125 C 20.175781 23.839844 18.433594 24.660156 16.332031 24.660156 C 14.839844 24.660156 13.644531 24.230469 12.773438 23.378906 C 11.902344 22.523438 11.457031 21.382812 11.457031 19.960938 C 11.457031 18.445312 11.992188 17.21875 13.074219 16.292969 C 14.160156 15.367188 15.601562 14.90625 17.4375 14.90625 C 18.042969 14.90625 18.664062 14.957031 19.324219 15.046875 C 19.980469 15.136719 20.65625 15.277344 21.371094 15.4375 L 21.371094 14.140625 C 21.371094 12.789062 21.085938 11.84375 20.535156 11.292969 C 19.964844 10.742188 19.003906 10.472656 17.632812 10.472656 C 17.007812 10.472656 16.367188 10.546875 15.710938 10.707031 C 15.050781 10.867188 14.410156 11.0625 13.789062 11.308594 C 13.503906 11.433594 13.289062 11.507812 13.164062 11.542969 C 13.039062 11.578125 12.953125 11.59375 12.878906 11.59375 C 12.632812 11.59375 12.507812 11.417969 12.507812 11.042969 L 12.507812 10.171875 C 12.507812 9.886719 12.542969 9.671875 12.632812 9.546875 C 12.71875 9.421875 12.878906 9.300781 13.128906 9.175781 C 13.753906 8.855469 14.5 8.585938 15.371094 8.375 C 16.242188 8.140625 17.167969 8.035156 18.148438 8.035156 C 20.265625 8.035156 21.816406 8.515625 22.8125 9.476562 C 23.789062 10.4375 24.289062 11.898438 24.289062 13.855469 L 24.289062 19.621094 Z M 17.097656 22.328125 C 17.6875 22.328125 18.289062 22.21875 18.929688 22.007812 C 19.570312 21.792969 20.140625 21.402344 20.621094 20.867188 C 20.90625 20.53125 21.121094 20.15625 21.226562 19.730469 C 21.335938 19.300781 21.40625 18.785156 21.40625 18.179688 L 21.40625 17.433594 C 20.890625 17.308594 20.335938 17.203125 19.769531 17.128906 C 19.199219 17.058594 18.648438 17.023438 18.09375 17.023438 C 16.902344 17.023438 16.03125 17.253906 15.441406 17.734375 C 14.855469 18.214844 14.570312 18.890625 14.570312 19.78125 C 14.570312 20.617188 14.785156 21.242188 15.230469 21.667969 C 15.65625 22.113281 16.28125 22.328125 17.097656 22.328125 Z M 31.390625 24.25 C 31.070312 24.25 30.855469 24.195312 30.714844 24.070312 C 30.570312 23.964844 30.445312 23.714844 30.339844 23.378906 L 26.15625 9.621094 C 26.050781 9.261719 25.996094 9.03125 25.996094 8.90625 C 25.996094 8.621094 26.140625 8.460938 26.425781 8.460938 L 28.167969 8.460938 C 28.507812 8.460938 28.738281 8.515625 28.863281 8.640625 C 29.003906 8.746094 29.113281 8.996094 29.21875 9.335938 L 32.207031 21.117188 L 34.984375 9.335938 C 35.074219 8.980469 35.179688 8.746094 35.324219 8.640625 C 35.464844 8.535156 35.714844 8.460938 36.035156 8.460938 L 37.457031 8.460938 C 37.796875 8.460938 38.027344 8.515625 38.171875 8.640625 C 38.3125 8.746094 38.4375 8.996094 38.507812 9.335938 L 41.320312 21.257812 L 44.398438 9.335938 C 44.507812 8.980469 44.632812 8.746094 44.753906 8.640625 C 44.898438 8.535156 45.128906 8.460938 45.449219 8.460938 L 47.105469 8.460938 C 47.390625 8.460938 47.550781 8.605469 47.550781 8.90625 C 47.550781 8.996094 47.53125 9.085938 47.515625 9.191406 C 47.496094 9.300781 47.460938 9.441406 47.390625 9.636719 L 43.101562 23.394531 C 42.992188 23.75 42.871094 23.980469 42.726562 24.089844 C 42.585938 24.195312 42.351562 24.265625 42.050781 24.265625 L 40.519531 24.265625 C 40.183594 24.265625 39.949219 24.214844 39.808594 24.089844 C 39.664062 23.964844 39.542969 23.734375 39.46875 23.378906 L 36.710938 11.898438 L 33.96875 23.359375 C 33.882812 23.714844 33.773438 23.945312 33.632812 24.070312 C 33.488281 24.195312 33.242188 24.25 32.921875 24.25 Z M 54.257812 24.730469 C 53.335938 24.730469 52.410156 24.621094 51.519531 24.410156 C 50.628906 24.195312 49.933594 23.964844 49.472656 23.699219 C 49.1875 23.539062 48.992188 23.359375 48.921875 23.199219 C 48.847656 23.039062 48.8125 22.859375 48.8125 22.699219 L 48.8125 21.792969 C 48.8125 21.417969 48.957031 21.242188 49.222656 21.242188 C 49.328125 21.242188 49.4375 21.257812 49.542969 21.292969 C 49.648438 21.332031 49.808594 21.402344 49.988281 21.472656 C 50.59375 21.738281 51.25 21.953125 51.945312 22.09375 C 52.65625 22.238281 53.351562 22.308594 54.0625 22.308594 C 55.183594 22.308594 56.058594 22.113281 56.664062 21.722656 C 57.265625 21.332031 57.585938 20.761719 57.585938 20.03125 C 57.585938 19.53125 57.425781 19.125 57.105469 18.785156 C 56.785156 18.445312 56.183594 18.144531 55.308594 17.859375 L 52.730469 17.058594 C 51.429688 16.648438 50.46875 16.042969 49.882812 15.242188 C 49.292969 14.460938 48.992188 13.589844 48.992188 12.664062 C 48.992188 11.914062 49.152344 11.257812 49.472656 10.6875 C 49.792969 10.117188 50.21875 9.621094 50.753906 9.226562 C 51.289062 8.820312 51.894531 8.515625 52.605469 8.300781 C 53.316406 8.089844 54.0625 8 54.847656 8 C 55.238281 8 55.648438 8.019531 56.039062 8.070312 C 56.449219 8.125 56.824219 8.195312 57.195312 8.265625 C 57.550781 8.355469 57.890625 8.445312 58.210938 8.550781 C 58.53125 8.660156 58.78125 8.765625 58.957031 8.871094 C 59.207031 9.015625 59.386719 9.15625 59.492188 9.316406 C 59.597656 9.460938 59.652344 9.65625 59.652344 9.90625 L 59.652344 10.742188 C 59.652344 11.113281 59.511719 11.308594 59.242188 11.308594 C 59.101562 11.308594 58.871094 11.238281 58.566406 11.097656 C 57.550781 10.632812 56.414062 10.402344 55.148438 10.402344 C 54.136719 10.402344 53.335938 10.5625 52.78125 10.902344 C 52.230469 11.238281 51.945312 11.753906 51.945312 12.484375 C 51.945312 12.984375 52.125 13.410156 52.480469 13.75 C 52.835938 14.085938 53.496094 14.425781 54.4375 14.726562 L 56.964844 15.527344 C 58.246094 15.9375 59.171875 16.507812 59.722656 17.238281 C 60.273438 17.964844 60.542969 18.804688 60.542969 19.730469 C 60.542969 20.492188 60.382812 21.1875 60.078125 21.792969 C 59.757812 22.398438 59.332031 22.933594 58.78125 23.359375 C 58.230469 23.804688 57.570312 24.125 56.804688 24.355469 C 56.003906 24.605469 55.167969 24.730469 54.257812 24.730469 Z M 54.257812 24.730469 "/>
<path style=" stroke:none;fill-rule:evenodd;fill:rgb(100%,60.000002%,0%);fill-opacity:1;" d="M 57.625 33.378906 C 51.769531 37.703125 43.261719 40 35.945312 40 C 25.695312 40 16.457031 36.210938 9.480469 29.910156 C 8.929688 29.410156 9.425781 28.734375 10.085938 29.125 C 17.632812 33.503906 26.941406 36.15625 36.570312 36.15625 C 43.066406 36.15625 50.203125 34.804688 56.769531 32.027344 C 57.746094 31.582031 58.585938 32.667969 57.625 33.378906 Z M 57.625 33.378906 "/>
<path style=" stroke:none;fill-rule:evenodd;fill:rgb(100%,60.000002%,0%);fill-opacity:1;" d="M 60.0625 30.601562 C 59.3125 29.640625 55.113281 30.140625 53.210938 30.371094 C 52.640625 30.441406 52.550781 29.945312 53.066406 29.570312 C 56.414062 27.222656 61.914062 27.898438 62.554688 28.679688 C 63.195312 29.480469 62.375 34.980469 59.242188 37.613281 C 58.761719 38.023438 58.300781 37.8125 58.511719 37.277344 C 59.226562 35.515625 60.808594 31.546875 60.0625 30.601562 Z M 60.0625 30.601562 "/>
</g>
</svg>
