<?xml version="1.0" encoding="UTF-8"?>
<svg xmlns="http://www.w3.org/2000/svg" xmlns:xlink="http://www.w3.org/1999/xlink" width="48px" height="48px" viewBox="0 0 48 48" version="1.1">
<g id="surface1">
<path style=" stroke:none;fill-rule:nonzero;fill:rgb(30.588236%,56.078434%,96.470588%);fill-opacity:1;" d="M 24 13.058594 C 17.960938 13.0625 13.0625 17.957031 13.058594 23.996094 C 13.0625 30.039062 17.957031 34.933594 23.996094 34.9375 C 30.039062 34.933594 34.933594 30.039062 34.9375 23.996094 C 34.929688 17.960938 30.035156 13.070312 24 13.058594 Z M 24 13.058594 "/>
<path style=" stroke:none;fill-rule:nonzero;fill:rgb(30.588236%,56.078434%,96.470588%);fill-opacity:1;" d="M 44.6875 9.042969 C 44.6875 6.289062 42.453125 4.054688 39.699219 4.054688 C 36.945312 4.054688 34.710938 6.289062 34.710938 9.042969 C 34.710938 11.796875 36.945312 14.03125 39.699219 14.03125 C 42.453125 14.03125 44.6875 11.796875 44.6875 9.042969 Z M 44.6875 9.042969 "/>
<path style=" stroke:none;fill-rule:nonzero;fill:rgb(30.588236%,56.078434%,96.470588%);fill-opacity:1;" d="M 24 48 C 37.238281 48 48 37.238281 48 24 C 48 20.539062 47.277344 17.195312 45.84375 14.054688 L 45.84375 14.050781 L 45.636719 13.59375 L 45.296875 13.96875 C 44.480469 14.894531 43.441406 15.609375 42.289062 16.039062 L 41.96875 16.160156 L 42.101562 16.472656 C 43.101562 18.84375 43.609375 21.394531 43.601562 23.96875 L 43.601562 23.988281 C 43.601562 34.800781 34.808594 43.601562 23.988281 43.601562 C 13.171875 43.601562 4.386719 34.808594 4.386719 23.996094 C 4.386719 13.1875 13.191406 4.386719 23.996094 4.386719 C 26.933594 4.386719 29.765625 5.023438 32.398438 6.28125 L 32.707031 6.429688 L 32.839844 6.121094 C 33.347656 4.957031 34.101562 3.980469 35.039062 3.226562 L 35.050781 3.214844 L 35.445312 2.894531 L 34.996094 2.660156 C 31.617188 0.902344 27.863281 -0.0117188 24.054688 0 L 24 0 C 10.761719 0 0 10.761719 0 24 C 0 37.238281 10.761719 48 24 48 Z M 24 48 "/>
</g>
</svg>
