<?xml version="1.0" encoding="UTF-8"?>
<svg xmlns="http://www.w3.org/2000/svg" xmlns:xlink="http://www.w3.org/1999/xlink" width="68px" height="68px" viewBox="0 0 68 68" version="1.1">
<defs>
<linearGradient id="linear0" gradientUnits="userSpaceOnUse" x1="143.089996" y1="-5210.109863" x2="112.480003" y2="-5242.609863" gradientTransform="matrix(0.132812,0,0,-0.132812,0,-663.265625)">
<stop offset="0.18" style="stop-color:rgb(0%,32.156863%,80%);stop-opacity:1;"/>
<stop offset="1" style="stop-color:rgb(14.901961%,51.764706%,100%);stop-opacity:1;"/>
</linearGradient>
<linearGradient id="linear1" gradientUnits="userSpaceOnUse" x1="108.510002" y1="-5246.189941" x2="73.059998" y2="-5281.709961" gradientTransform="matrix(0.132812,0,0,-0.132812,0,-663.265625)">
<stop offset="0.18" style="stop-color:rgb(0%,32.156863%,80%);stop-opacity:1;"/>
<stop offset="1" style="stop-color:rgb(14.901961%,51.764706%,100%);stop-opacity:1;"/>
</linearGradient>
</defs>
<g id="surface1">
<path style=" stroke:none;fill-rule:nonzero;fill:rgb(14.509805%,21.960784%,34.509805%);fill-opacity:1;" d="M 34.699219 26.554688 L 36.949219 26.554688 L 36.949219 37.679688 C 36.949219 40.613281 35.609375 42.660156 32.503906 42.660156 C 31.335938 42.660156 30.425781 42.46875 29.796875 42.246094 L 29.796875 40.113281 C 30.480469 40.390625 31.308594 40.53125 32.132812 40.53125 C 34.042969 40.53125 34.699219 39.425781 34.699219 37.820312 Z M 34.699219 26.554688 "/>
<path style=" stroke:none;fill-rule:nonzero;fill:rgb(14.509805%,21.960784%,34.509805%);fill-opacity:1;" d="M 41.082031 25.699219 C 41.964844 25.699219 42.589844 26.222656 42.589844 27.164062 C 42.589844 28.105469 41.964844 28.628906 41.082031 28.628906 C 40.195312 28.628906 39.570312 28.105469 39.570312 27.164062 C 39.570312 26.222656 40.195312 25.699219 41.082031 25.699219 Z M 39.96875 30.375 L 42.132812 30.375 L 42.132812 42.550781 L 39.96875 42.550781 Z M 39.96875 30.375 "/>
<path style=" stroke:none;fill-rule:nonzero;fill:rgb(14.509805%,21.960784%,34.509805%);fill-opacity:1;" d="M 47.492188 42.550781 L 45.382812 42.550781 L 45.382812 30.375 L 47.492188 30.375 L 47.492188 32.503906 C 48.230469 31.066406 49.484375 30.042969 51.9375 30.179688 L 51.9375 32.226562 C 49.171875 31.953125 47.492188 32.753906 47.492188 35.355469 Z M 47.492188 42.550781 "/>
<path style=" stroke:none;fill-rule:nonzero;fill:rgb(14.509805%,21.960784%,34.509805%);fill-opacity:1;" d="M 62.050781 40.363281 C 61.25 41.96875 59.742188 42.800781 57.804688 42.800781 C 54.472656 42.800781 52.789062 40.058594 52.789062 36.464844 C 52.789062 32.867188 54.558594 30.128906 58.0625 30.128906 C 59.886719 30.128906 61.308594 30.929688 62.050781 32.507812 L 62.050781 30.375 L 64.214844 30.375 L 64.214844 42.554688 L 62.050781 42.554688 Z M 58.375 40.863281 C 60.3125 40.863281 62.023438 39.671875 62.023438 36.960938 L 62.023438 35.992188 C 62.023438 33.28125 60.453125 32.089844 58.601562 32.089844 C 56.183594 32.089844 54.929688 33.640625 54.929688 36.460938 C 54.957031 39.394531 56.152344 40.863281 58.375 40.863281 Z M 58.375 40.863281 "/>
<path style=" stroke:none;fill-rule:nonzero;fill:rgb(14.901961%,51.764709%,100%);fill-opacity:1;" d="M 23.386719 24.066406 L 13.53125 24.066406 C 13.53125 26.445312 15.523438 28.382812 17.976562 28.382812 L 19.796875 28.382812 L 19.796875 30.070312 C 19.796875 32.449219 21.792969 34.386719 24.242188 34.386719 L 24.242188 24.894531 C 24.242188 24.425781 23.871094 24.0625 23.386719 24.0625 Z M 23.386719 24.066406 "/>
<path style=" stroke:none;fill-rule:nonzero;fill:url(#linear0);" d="M 18.515625 28.824219 L 8.65625 28.824219 C 8.65625 31.207031 10.652344 33.140625 13.101562 33.140625 L 14.925781 33.140625 L 14.925781 34.859375 C 14.925781 37.238281 16.921875 39.175781 19.371094 39.175781 L 19.371094 29.65625 C 19.371094 29.210938 19 28.824219 18.515625 28.824219 Z M 18.515625 28.824219 "/>
<path style=" stroke:none;fill-rule:nonzero;fill:url(#linear1);" d="M 13.640625 33.613281 L 3.785156 33.613281 C 3.785156 35.992188 5.78125 37.929688 8.230469 37.929688 L 10.054688 37.929688 L 10.054688 39.617188 C 10.054688 41.996094 12.046875 43.933594 14.5 43.933594 L 14.5 34.441406 C 14.5 33.972656 14.101562 33.609375 13.644531 33.609375 Z M 13.640625 33.613281 "/>
</g>
</svg>
