<?xml version="1.0" encoding="UTF-8"?>
<svg xmlns="http://www.w3.org/2000/svg" xmlns:xlink="http://www.w3.org/1999/xlink" width="78px" height="48px" viewBox="0 0 78 48" version="1.1">
<defs>
<clipPath id="clip1">
  <path d="M 20 10 L 38 10 L 38 31 L 20 31 Z M 20 10 "/>
</clipPath>
<clipPath id="clip2">
  <path d="M 28.332031 11.097656 L 20.90625 15.40625 C 20.625 15.570312 20.457031 15.867188 20.457031 16.1875 L 20.457031 24.816406 C 20.457031 25.136719 20.625 25.4375 20.90625 25.597656 L 28.332031 29.910156 C 28.609375 30.074219 28.953125 30.074219 29.230469 29.910156 L 36.65625 25.597656 C 36.929688 25.4375 37.101562 25.136719 37.101562 24.816406 L 37.101562 16.1875 C 37.101562 15.867188 36.929688 15.570312 36.652344 15.40625 L 29.226562 11.097656 C 29.089844 11.015625 28.933594 10.976562 28.777344 10.976562 C 28.625 10.976562 28.46875 11.015625 28.328125 11.097656 "/>
</clipPath>
<linearGradient id="linear0" gradientUnits="userSpaceOnUse" x1="-0.348" y1="0" x2="1.251" y2="0" gradientTransform="matrix(-6.709736,13.766558,-13.687809,-6.748338,31.8024,14.291551)">
<stop offset="0.3" style="stop-color:rgb(24.313725%,52.54902%,23.921569%);stop-opacity:1;"/>
<stop offset="0.5" style="stop-color:rgb(33.333333%,57.647059%,30.980392%);stop-opacity:1;"/>
<stop offset="0.8" style="stop-color:rgb(35.294118%,67.843137%,27.058824%);stop-opacity:1;"/>
</linearGradient>
<clipPath id="clip3">
  <path d="M 20 11 L 37 11 L 37 31 L 20 31 Z M 20 11 "/>
</clipPath>
<clipPath id="clip4">
  <path d="M 20.640625 25.363281 C 20.710938 25.457031 20.800781 25.539062 20.90625 25.597656 L 27.273438 29.296875 L 28.335938 29.910156 C 28.496094 30.003906 28.675781 30.042969 28.851562 30.03125 C 28.914062 30.023438 28.972656 30.011719 29.03125 29.996094 L 36.863281 15.574219 C 36.800781 15.507812 36.730469 15.453125 36.652344 15.40625 L 31.789062 12.582031 L 29.21875 11.09375 C 29.148438 11.050781 29.066406 11.023438 28.988281 11 Z M 20.640625 25.363281 "/>
</clipPath>
<linearGradient id="linear1" gradientUnits="userSpaceOnUse" x1="-0.456" y1="0" x2="0.582" y2="0" gradientTransform="matrix(18.826736,-13.990753,13.910721,18.93505,27.653862,21.518635)">
<stop offset="0.57" style="stop-color:rgb(24.313725%,52.54902%,23.921569%);stop-opacity:1;"/>
<stop offset="0.72" style="stop-color:rgb(38.039216%,59.607843%,34.117647%);stop-opacity:1;"/>
<stop offset="1" style="stop-color:rgb(46.27451%,67.45098%,39.215686%);stop-opacity:1;"/>
</linearGradient>
<clipPath id="clip5">
  <path d="M 20 10 L 38 10 L 38 31 L 20 31 Z M 20 10 "/>
</clipPath>
<clipPath id="clip6">
  <path d="M 28.691406 10.980469 C 28.566406 10.992188 28.445312 11.03125 28.332031 11.097656 L 20.925781 15.394531 L 28.910156 30.023438 C 29.023438 30.007812 29.132812 29.96875 29.230469 29.910156 L 36.65625 25.597656 C 36.886719 25.464844 37.042969 25.238281 37.089844 24.980469 L 28.949219 10.996094 C 28.890625 10.984375 28.828125 10.976562 28.769531 10.976562 C 28.742188 10.976562 28.71875 10.976562 28.695312 10.980469 "/>
</clipPath>
<linearGradient id="linear2" gradientUnits="userSpaceOnUse" x1="0.043" y1="0" x2="0.984" y2="0" gradientTransform="matrix(17.17178,0,0,17.270573,20.19298,20.500529)">
<stop offset="0.16" style="stop-color:rgb(41.960784%,74.901961%,27.843137%);stop-opacity:1;"/>
<stop offset="0.38" style="stop-color:rgb(47.45098%,70.588235%,38.039216%);stop-opacity:1;"/>
<stop offset="0.47" style="stop-color:rgb(45.882353%,67.45098%,39.215686%);stop-opacity:1;"/>
<stop offset="0.7" style="stop-color:rgb(39.607843%,61.960784%,35.294118%);stop-opacity:1;"/>
<stop offset="0.9" style="stop-color:rgb(24.313725%,52.54902%,23.921569%);stop-opacity:1;"/>
</linearGradient>
</defs>
<g id="surface1">
<path style=" stroke:none;fill-rule:nonzero;fill:rgb(40.784314%,62.352943%,38.82353%);fill-opacity:1;" d="M 38.542969 48.03125 C 38.285156 48.03125 38.027344 47.964844 37.800781 47.832031 L 35.453125 46.433594 C 35.101562 46.234375 35.273438 46.167969 35.386719 46.125 C 35.855469 45.960938 35.949219 45.921875 36.449219 45.636719 C 36.503906 45.609375 36.570312 45.617188 36.625 45.652344 L 38.433594 46.730469 C 38.496094 46.765625 38.589844 46.765625 38.648438 46.730469 L 45.691406 42.640625 C 45.757812 42.601562 45.800781 42.527344 45.800781 42.449219 L 45.800781 34.277344 C 45.800781 34.195312 45.757812 34.121094 45.691406 34.082031 L 38.652344 29.996094 C 38.585938 29.957031 38.5 29.957031 38.433594 29.996094 L 31.398438 34.082031 C 31.328125 34.121094 31.285156 34.195312 31.285156 34.273438 L 31.285156 42.445312 C 31.285156 42.523438 31.328125 42.601562 31.394531 42.636719 L 33.324219 43.757812 C 34.371094 44.285156 35.011719 43.664062 35.011719 43.039062 L 35.011719 34.972656 C 35.011719 34.859375 35.101562 34.769531 35.214844 34.769531 L 36.105469 34.769531 C 36.21875 34.769531 36.308594 34.859375 36.308594 34.972656 L 36.308594 43.042969 C 36.308594 44.445312 35.546875 45.253906 34.222656 45.253906 C 33.816406 45.253906 33.496094 45.253906 32.601562 44.808594 L 30.753906 43.738281 C 30.296875 43.472656 30.015625 42.976562 30.015625 42.445312 L 30.015625 34.273438 C 30.015625 33.742188 30.296875 33.246094 30.753906 32.984375 L 37.800781 28.894531 C 38.246094 28.640625 38.839844 28.640625 39.28125 28.894531 L 46.324219 32.984375 C 46.777344 33.25 47.0625 33.746094 47.0625 34.277344 L 47.0625 42.449219 C 47.0625 42.980469 46.777344 43.472656 46.324219 43.738281 L 39.28125 47.828125 C 39.058594 47.960938 38.800781 48.027344 38.539062 48.027344 "/>
<path style=" stroke:none;fill-rule:nonzero;fill:rgb(40.784314%,62.352943%,38.82353%);fill-opacity:1;" d="M 40.714844 42.398438 C 37.636719 42.398438 36.988281 40.976562 36.988281 39.785156 C 36.988281 39.671875 37.082031 39.582031 37.191406 39.582031 L 38.101562 39.582031 C 38.203125 39.582031 38.289062 39.652344 38.304688 39.753906 C 38.441406 40.6875 38.851562 41.15625 40.714844 41.15625 C 42.199219 41.15625 42.828125 40.820312 42.828125 40.027344 C 42.828125 39.570312 42.648438 39.234375 40.34375 39.007812 C 38.414062 38.816406 37.222656 38.386719 37.222656 36.835938 C 37.222656 35.40625 38.421875 34.554688 40.429688 34.554688 C 42.683594 34.554688 43.800781 35.34375 43.941406 37.035156 C 43.949219 37.09375 43.925781 37.148438 43.886719 37.191406 C 43.847656 37.234375 43.792969 37.257812 43.738281 37.257812 L 42.824219 37.257812 C 42.726562 37.257812 42.644531 37.191406 42.625 37.097656 C 42.40625 36.117188 41.875 35.804688 40.425781 35.804688 C 38.804688 35.804688 38.617188 36.371094 38.617188 36.796875 C 38.617188 37.3125 38.839844 37.464844 41.023438 37.753906 C 43.191406 38.042969 44.21875 38.453125 44.21875 39.980469 C 44.21875 41.523438 42.9375 42.410156 40.707031 42.410156 M 49.285156 33.742188 L 49.519531 33.742188 C 49.714844 33.742188 49.75 33.605469 49.75 33.523438 C 49.75 33.316406 49.609375 33.316406 49.527344 33.316406 L 49.285156 33.316406 Z M 48.996094 33.070312 L 49.519531 33.070312 C 49.699219 33.070312 50.050781 33.070312 50.050781 33.476562 C 50.050781 33.757812 49.871094 33.816406 49.765625 33.851562 C 49.972656 33.863281 49.988281 34.003906 50.015625 34.199219 C 50.03125 34.320312 50.054688 34.53125 50.097656 34.601562 L 49.773438 34.601562 C 49.765625 34.53125 49.714844 34.140625 49.714844 34.121094 C 49.695312 34.035156 49.664062 33.992188 49.558594 33.992188 L 49.289062 33.992188 L 49.289062 34.605469 L 48.996094 34.605469 Z M 48.367188 33.832031 C 48.367188 34.46875 48.875 34.980469 49.503906 34.980469 C 50.132812 34.980469 50.640625 34.457031 50.640625 33.832031 C 50.640625 33.195312 50.125 32.691406 49.5 32.691406 C 48.882812 32.691406 48.363281 33.191406 48.363281 33.832031 M 50.859375 33.835938 C 50.859375 34.589844 50.25 35.203125 49.503906 35.203125 C 48.761719 35.203125 48.148438 34.59375 48.148438 33.835938 C 48.148438 33.0625 48.777344 32.472656 49.503906 32.472656 C 50.234375 32.472656 50.859375 33.066406 50.859375 33.835938 "/>
<path style=" stroke:none;fill-rule:evenodd;fill:rgb(20%,20%,20%);fill-opacity:1;" d="M 16.734375 16.054688 C 16.734375 15.726562 16.5625 15.425781 16.285156 15.265625 L 8.816406 10.945312 C 8.691406 10.871094 8.550781 10.832031 8.40625 10.824219 L 8.328125 10.824219 C 8.1875 10.832031 8.046875 10.871094 7.917969 10.945312 L 0.453125 15.265625 C 0.171875 15.429688 0 15.726562 0 16.054688 L 0.015625 27.691406 C 0.015625 27.851562 0.0976562 28.003906 0.242188 28.082031 C 0.378906 28.167969 0.550781 28.167969 0.6875 28.082031 L 5.125 25.527344 C 5.40625 25.359375 5.578125 25.0625 5.578125 24.738281 L 5.578125 19.304688 C 5.578125 18.976562 5.75 18.679688 6.027344 18.515625 L 7.917969 17.421875 C 8.058594 17.339844 8.210938 17.300781 8.367188 17.300781 C 8.523438 17.300781 8.679688 17.339844 8.816406 17.421875 L 10.707031 18.515625 C 10.984375 18.679688 11.15625 18.976562 11.15625 19.300781 L 11.15625 24.738281 C 11.15625 25.0625 11.332031 25.359375 11.609375 25.527344 L 16.046875 28.082031 C 16.183594 28.164062 16.359375 28.164062 16.496094 28.082031 C 16.632812 28 16.71875 27.851562 16.71875 27.6875 Z M 51.964844 22.113281 C 51.964844 22.191406 51.921875 22.269531 51.851562 22.308594 L 49.289062 23.792969 C 49.21875 23.835938 49.132812 23.835938 49.0625 23.792969 L 46.5 22.308594 C 46.429688 22.269531 46.386719 22.191406 46.386719 22.113281 L 46.386719 19.132812 C 46.386719 19.054688 46.429688 18.976562 46.496094 18.9375 L 49.058594 17.449219 C 49.128906 17.40625 49.214844 17.40625 49.285156 17.449219 L 51.851562 18.9375 C 51.921875 18.976562 51.964844 19.054688 51.964844 19.132812 Z M 52.65625 0.0585938 C 52.519531 -0.0195312 52.347656 -0.0195312 52.210938 0.0625 C 52.074219 0.144531 51.988281 0.292969 51.988281 0.453125 L 51.988281 11.976562 C 51.988281 12.089844 51.925781 12.195312 51.828125 12.253906 C 51.734375 12.308594 51.613281 12.308594 51.515625 12.253906 L 49.644531 11.167969 C 49.367188 11.007812 49.023438 11.007812 48.742188 11.167969 L 41.273438 15.503906 C 40.996094 15.664062 40.824219 15.964844 40.824219 16.289062 L 40.824219 24.960938 C 40.824219 25.285156 40.996094 25.582031 41.273438 25.746094 L 48.742188 30.085938 C 49.023438 30.246094 49.363281 30.246094 49.644531 30.085938 L 57.113281 25.742188 C 57.390625 25.582031 57.566406 25.28125 57.566406 24.957031 L 57.566406 3.34375 C 57.566406 3.015625 57.386719 2.710938 57.101562 2.550781 Z M 77.527344 19.054688 C 77.804688 18.894531 77.976562 18.59375 77.976562 18.273438 L 77.976562 16.171875 C 77.976562 15.847656 77.804688 15.546875 77.527344 15.386719 L 70.105469 11.054688 C 69.828125 10.890625 69.484375 10.890625 69.203125 11.054688 L 61.734375 15.386719 C 61.457031 15.550781 61.285156 15.847656 61.285156 16.171875 L 61.285156 24.84375 C 61.285156 25.167969 61.460938 25.46875 61.738281 25.632812 L 69.160156 29.882812 C 69.433594 30.042969 69.765625 30.042969 70.042969 29.890625 L 74.53125 27.378906 C 74.671875 27.300781 74.761719 27.148438 74.761719 26.988281 C 74.761719 26.824219 74.675781 26.671875 74.535156 26.59375 L 67.023438 22.253906 C 66.882812 22.175781 66.796875 22.023438 66.796875 21.863281 L 66.796875 19.144531 C 66.796875 18.980469 66.878906 18.832031 67.019531 18.75 L 69.359375 17.394531 C 69.496094 17.3125 69.667969 17.3125 69.808594 17.394531 L 72.148438 18.75 C 72.285156 18.832031 72.371094 18.980469 72.371094 19.144531 L 72.371094 21.28125 C 72.371094 21.441406 72.457031 21.59375 72.597656 21.675781 C 72.738281 21.753906 72.910156 21.753906 73.050781 21.671875 Z M 77.527344 19.054688 "/>
<path style=" stroke:none;fill-rule:evenodd;fill:rgb(40.784314%,62.352943%,38.82353%);fill-opacity:1;" d="M 69.546875 18.648438 C 69.597656 18.617188 69.664062 18.617188 69.71875 18.648438 L 71.152344 19.480469 C 71.203125 19.511719 71.238281 19.570312 71.238281 19.632812 L 71.238281 21.296875 C 71.238281 21.359375 71.203125 21.417969 71.152344 21.449219 L 69.71875 22.28125 C 69.664062 22.3125 69.597656 22.3125 69.546875 22.28125 L 68.113281 21.449219 C 68.058594 21.417969 68.023438 21.359375 68.023438 21.296875 L 68.023438 19.632812 C 68.023438 19.570312 68.058594 19.511719 68.113281 19.480469 Z M 69.546875 18.648438 "/>
<g clip-path="url(#clip1)" clip-rule="nonzero">
<g clip-path="url(#clip2)" clip-rule="nonzero">
<path style=" stroke:none;fill-rule:nonzero;fill:url(#linear0);" d="M 44.605469 14.675781 L 23.679688 4.359375 L 12.949219 26.375 L 33.875 36.691406 Z M 44.605469 14.675781 "/>
</g>
</g>
<g clip-path="url(#clip3)" clip-rule="nonzero">
<g clip-path="url(#clip4)" clip-rule="nonzero">
<path style=" stroke:none;fill-rule:nonzero;fill:url(#linear1);" d="M 11.59375 17.726562 L 26.367188 37.839844 L 45.910156 23.320312 L 31.132812 3.207031 Z M 11.59375 17.726562 "/>
</g>
</g>
<g clip-path="url(#clip5)" clip-rule="nonzero">
<g clip-path="url(#clip6)" clip-rule="nonzero">
<path style=" stroke:none;fill-rule:nonzero;fill:url(#linear2);" d="M 20.925781 10.976562 L 20.925781 30.023438 L 37.085938 30.023438 L 37.085938 10.976562 Z M 20.925781 10.976562 "/>
</g>
</g>
</g>
</svg>
