<?xml version="1.0" encoding="UTF-8"?>
<svg xmlns="http://www.w3.org/2000/svg" xmlns:xlink="http://www.w3.org/1999/xlink" width="48px" height="48px" viewBox="0 0 48 48" version="1.1">
<g id="surface1">
<path style=" stroke:none;fill-rule:nonzero;fill:rgb(0%,0%,0%);fill-opacity:1;" d="M 42.078125 0 C 40.03125 0 38.128906 1.058594 37.050781 2.800781 C 35.972656 4.539062 35.867188 6.714844 36.777344 8.546875 L 23.882812 21.441406 C 21.285156 20.152344 18.136719 20.933594 16.445312 23.289062 C 14.75 25.640625 15.011719 28.875 17.0625 30.929688 C 19.113281 32.980469 22.347656 33.246094 24.703125 31.554688 C 27.058594 29.863281 27.84375 26.710938 26.554688 24.113281 L 39.449219 11.21875 C 41.636719 12.304688 44.265625 11.933594 46.066406 10.289062 C 47.871094 8.640625 48.476562 6.054688 47.59375 3.777344 C 46.710938 1.503906 44.523438 0 42.078125 0 Z M 21.257812 5.488281 C 21.113281 5.488281 20.96875 5.496094 20.828125 5.496094 C 20.683594 5.503906 20.542969 5.503906 20.398438 5.507812 C 19.503906 5.542969 18.613281 5.636719 17.726562 5.785156 L 17.667969 5.792969 L 17.296875 5.859375 L 17.089844 5.898438 C 16.894531 5.9375 16.703125 5.980469 16.511719 6.023438 L 16.445312 6.039062 C 14.671875 6.453125 12.957031 7.09375 11.347656 7.941406 L 11.035156 8.117188 C 10.910156 8.1875 10.785156 8.257812 10.660156 8.328125 C 10.570312 8.382812 10.476562 8.429688 10.382812 8.484375 L 10.378906 8.484375 L 10.359375 8.496094 L 10.289062 8.535156 L 10.289062 8.539062 L 10.511719 8.90625 L 16.808594 19.367188 C 17.054688 19.21875 17.308594 19.085938 17.570312 18.964844 C 18.589844 18.476562 19.695312 18.195312 20.824219 18.136719 C 20.96875 18.128906 21.113281 18.121094 21.253906 18.121094 Z M 22.113281 5.511719 L 22.113281 18.175781 C 22.761719 18.242188 23.40625 18.382812 24.03125 18.59375 L 33.351562 9.273438 C 33.007812 9.035156 32.65625 8.800781 32.296875 8.578125 L 32.242188 8.550781 C 32.132812 8.480469 32.019531 8.414062 31.90625 8.351562 L 31.710938 8.238281 L 31.515625 8.128906 C 31.402344 8.066406 31.285156 8.003906 31.171875 7.945312 L 31.117188 7.914062 C 30.199219 7.4375 29.246094 7.023438 28.269531 6.683594 C 26.886719 6.199219 25.460938 5.863281 24.011719 5.671875 L 23.835938 5.648438 L 23.652344 5.628906 C 23.539062 5.613281 23.425781 5.601562 23.3125 5.589844 L 23.214844 5.582031 L 22.808594 5.546875 C 22.636719 5.535156 22.46875 5.523438 22.296875 5.519531 C 22.234375 5.511719 22.175781 5.511719 22.113281 5.511719 Z M 9.5625 8.996094 C 8.597656 9.625 7.6875 10.335938 6.84375 11.121094 L 15.800781 20.078125 C 15.898438 19.996094 15.996094 19.921875 16.101562 19.847656 L 16.078125 19.808594 Z M 6.222656 11.714844 C 6.125 11.816406 6.027344 11.921875 5.929688 12.023438 L 5.632812 12.335938 C 4.972656 13.046875 4.371094 13.792969 3.828125 14.570312 L 3.75 14.683594 C 3.601562 14.898438 3.457031 15.113281 3.316406 15.335938 C 1.304688 18.496094 0.164062 22.140625 0.0195312 25.886719 L 0.0078125 26.316406 L 0 26.742188 L 12.632812 26.742188 C 12.632812 26.601562 12.648438 26.457031 12.652344 26.316406 C 12.664062 26.171875 12.664062 26.027344 12.679688 25.886719 C 12.84375 24.242188 13.476562 22.636719 14.585938 21.285156 C 14.675781 21.175781 14.777344 21.074219 14.871094 20.964844 C 14.96875 20.863281 15.058594 20.753906 15.160156 20.648438 Z M 38.734375 14.644531 L 29.40625 23.96875 C 29.621094 24.59375 29.757812 25.238281 29.828125 25.886719 L 42.492188 25.886719 L 42.484375 25.699219 C 42.46875 25.394531 42.449219 25.089844 42.421875 24.789062 L 42.410156 24.683594 C 42.394531 24.523438 42.375 24.363281 42.359375 24.203125 L 42.359375 24.183594 L 42.292969 23.703125 L 42.292969 23.6875 C 42.144531 22.675781 41.925781 21.679688 41.636719 20.699219 L 41.632812 20.679688 C 41.585938 20.527344 41.539062 20.375 41.492188 20.222656 L 41.472656 20.164062 C 41.425781 20.027344 41.382812 19.890625 41.335938 19.757812 L 41.292969 19.644531 C 41.203125 19.371094 41.101562 19.101562 40.988281 18.835938 C 40.929688 18.683594 40.867188 18.53125 40.800781 18.382812 C 40.761719 18.285156 40.71875 18.191406 40.675781 18.09375 L 40.601562 17.933594 C 40.550781 17.816406 40.496094 17.703125 40.441406 17.589844 L 40.394531 17.484375 L 40.203125 17.097656 L 40.175781 17.042969 C 40.101562 16.902344 40.027344 16.761719 39.949219 16.621094 L 39.941406 16.605469 C 39.574219 15.929688 39.171875 15.273438 38.734375 14.644531 Z M 29.875 26.742188 C 29.875 26.886719 29.863281 27.027344 29.855469 27.171875 C 29.847656 27.316406 29.84375 27.457031 29.828125 27.601562 C 29.664062 29.289062 29 30.890625 27.925781 32.203125 C 27.835938 32.3125 27.734375 32.414062 27.636719 32.523438 C 27.542969 32.628906 27.453125 32.738281 27.351562 32.839844 L 36.285156 41.773438 C 36.386719 41.671875 36.480469 41.566406 36.578125 41.464844 C 36.679688 41.359375 36.78125 41.257812 36.875 41.152344 C 37.539062 40.4375 38.140625 39.6875 38.6875 38.910156 L 38.75 38.816406 L 38.945312 38.53125 L 39.117188 38.269531 L 39.195312 38.144531 C 41.207031 34.980469 42.34375 31.34375 42.488281 27.601562 C 42.496094 27.457031 42.496094 27.3125 42.503906 27.171875 C 42.503906 27.03125 42.511719 26.886719 42.511719 26.742188 Z M 0.0195312 27.601562 L 0.0273438 27.785156 L 0.046875 28.144531 L 0.0585938 28.296875 L 0.09375 28.707031 L 0.101562 28.800781 C 0.117188 28.953125 0.132812 29.105469 0.148438 29.257812 L 0.15625 29.300781 C 0.175781 29.464844 0.199219 29.632812 0.222656 29.796875 C 0.367188 30.804688 0.585938 31.804688 0.875 32.789062 L 0.878906 32.800781 C 0.925781 32.957031 0.972656 33.109375 1.023438 33.261719 L 1.039062 33.316406 C 1.136719 33.613281 1.238281 33.90625 1.347656 34.195312 L 1.40625 34.355469 L 1.523438 34.652344 C 1.582031 34.804688 1.644531 34.957031 1.710938 35.109375 L 1.835938 35.386719 L 1.910156 35.554688 L 2.066406 35.894531 L 2.121094 36.003906 C 2.261719 36.300781 2.414062 36.59375 2.570312 36.882812 L 2.621094 36.96875 L 13.4375 30.453125 L 13.476562 30.429688 C 13.054688 29.539062 12.785156 28.582031 12.6875 27.601562 Z M 1.03125 33.292969 L 0.617188 33.40625 L 0.621094 33.417969 Z M 13.878906 31.1875 L 3.050781 37.710938 C 3.214844 37.988281 3.390625 38.257812 3.566406 38.523438 L 3.585938 38.550781 L 3.59375 38.5625 L 3.609375 38.589844 C 3.625 38.613281 3.636719 38.632812 3.652344 38.652344 L 3.65625 38.65625 L 3.65625 38.660156 C 3.847656 38.941406 4.046875 39.222656 4.253906 39.492188 L 4.265625 39.511719 C 4.453125 39.761719 4.644531 40.003906 4.84375 40.246094 L 4.910156 40.324219 C 4.996094 40.429688 5.082031 40.53125 5.171875 40.632812 L 5.285156 40.761719 L 5.507812 41.015625 L 5.636719 41.152344 L 5.695312 41.214844 L 5.859375 41.394531 L 5.929688 41.464844 C 6.027344 41.566406 6.125 41.671875 6.226562 41.773438 L 15.160156 32.839844 C 14.957031 32.636719 14.769531 32.421875 14.589844 32.199219 C 14.328125 31.878906 14.089844 31.539062 13.878906 31.1875 Z M 26.710938 33.410156 C 26.613281 33.488281 26.511719 33.566406 26.410156 33.640625 L 26.433594 33.679688 L 32.949219 44.492188 C 33.25 44.292969 33.546875 44.09375 33.839844 43.878906 C 34.46875 43.414062 35.078125 42.910156 35.667969 42.367188 Z M 15.796875 33.414062 L 15.769531 33.445312 L 6.847656 42.367188 C 6.976562 42.484375 7.105469 42.601562 7.238281 42.71875 C 7.28125 42.757812 7.324219 42.796875 7.367188 42.835938 L 7.671875 43.09375 C 7.8125 43.210938 7.957031 43.328125 8.101562 43.441406 L 8.148438 43.476562 L 8.53125 43.773438 L 8.546875 43.78125 C 9.082031 44.183594 9.640625 44.558594 10.214844 44.910156 L 10.273438 44.945312 L 10.601562 45.140625 L 10.804688 45.253906 C 10.980469 45.359375 11.160156 45.457031 11.34375 45.550781 C 11.359375 45.558594 11.375 45.570312 11.394531 45.574219 C 11.71875 45.746094 12.046875 45.902344 12.378906 46.054688 L 12.695312 45.285156 L 17.183594 34.390625 L 17.199219 34.351562 C 16.703125 34.085938 16.234375 33.773438 15.796875 33.414062 Z M 25.699219 34.121094 C 25.578125 34.195312 25.453125 34.261719 25.324219 34.328125 C 23.320312 35.40625 20.96875 35.648438 18.785156 35.003906 C 18.644531 34.960938 18.515625 34.90625 18.378906 34.859375 C 18.242188 34.8125 18.105469 34.773438 17.972656 34.714844 L 13.488281 45.605469 L 13.3125 46.03125 L 13.164062 46.394531 L 13.164062 46.398438 L 13.199219 46.410156 L 13.246094 46.433594 C 13.351562 46.472656 13.457031 46.511719 13.5625 46.550781 C 13.699219 46.605469 13.828125 46.65625 13.964844 46.707031 L 14.167969 46.785156 C 15.570312 47.28125 17.027344 47.625 18.503906 47.820312 L 18.679688 47.847656 L 18.859375 47.867188 L 19.203125 47.902344 C 19.371094 47.921875 19.539062 47.9375 19.707031 47.949219 C 19.753906 47.949219 19.800781 47.949219 19.847656 47.953125 L 20.214844 47.976562 L 20.441406 47.984375 C 20.679688 47.996094 20.917969 48 21.15625 48 L 21.257812 48 C 22.457031 48 23.65625 47.902344 24.84375 47.699219 L 25.210938 47.632812 L 25.421875 47.59375 L 25.640625 47.546875 L 26 47.464844 L 26.0625 47.449219 C 27.839844 47.035156 29.550781 46.398438 31.164062 45.550781 C 31.269531 45.492188 31.371094 45.429688 31.476562 45.371094 C 31.601562 45.304688 31.726562 45.230469 31.851562 45.160156 C 31.9375 45.113281 32.023438 45.066406 32.109375 45.015625 L 32.113281 45.015625 L 32.117188 45.011719 L 32.121094 45.011719 L 32.125 45.007812 L 32.136719 45 L 32.222656 44.949219 L 32.003906 44.585938 L 31.78125 44.214844 Z M 32.222656 44.949219 L 32.140625 45 L 32.222656 44.953125 Z M 32.125 45.007812 L 32.121094 45.007812 Z M 32.113281 45.015625 L 32.109375 45.015625 Z M 32.113281 45.015625 "/>
</g>
</svg>
