<?xml version="1.0" encoding="UTF-8"?>
<svg xmlns="http://www.w3.org/2000/svg" xmlns:xlink="http://www.w3.org/1999/xlink" width="48px" height="48px" viewBox="0 0 48 48" version="1.1">
<g id="surface1">
<path style=" stroke:none;fill-rule:nonzero;fill:rgb(26.666668%,65.882355%,70.19608%);fill-opacity:1;" d="M 13.5 20.550781 C 14.898438 14.949219 18.398438 12.148438 24 12.148438 C 32.398438 12.148438 33.449219 18.449219 37.648438 19.5 C 40.449219 20.199219 42.898438 19.148438 45 16.351562 C 43.601562 21.949219 40.101562 24.75 34.5 24.75 C 26.101562 24.75 25.050781 18.449219 20.851562 17.398438 C 18.050781 16.699219 15.601562 17.75 13.5 20.550781 Z M 3 33.148438 C 4.398438 27.550781 7.898438 24.75 13.5 24.75 C 21.898438 24.75 22.949219 31.050781 27.148438 32.101562 C 29.949219 32.800781 32.398438 31.75 34.5 28.949219 C 33.101562 34.550781 29.601562 37.351562 24 37.351562 C 15.601562 37.351562 14.550781 31.050781 10.351562 30 C 7.550781 29.300781 5.101562 30.351562 3 33.148438 Z M 3 33.148438 "/>
</g>
</svg>
